<svg width="49" height="47" viewBox="0 0 49 47" fill="none" xmlns="http://www.w3.org/2000/svg">
<mask id="mask0_6_291" style="mask-type:alpha" maskUnits="userSpaceOnUse" x="-10" y="-8" width="66" height="62">
<rect x="-9.86908" y="-7.64606" width="65.6705" height="60.8944" fill="#D9D9D9"/>
</mask>
<g mask="url(#mask0_6_291)">
<path d="M10.419 19.2879L23.1319 0L35.7897 19.2879H10.419ZM38.0124 46.8905C34.9486 46.8905 32.3524 45.9027 30.2239 43.927C28.0954 41.9513 27.0312 39.5429 27.0312 36.7019C27.0312 33.8609 28.0965 31.4535 30.2272 29.4798C32.3578 27.5061 34.9551 26.5193 38.019 26.5193C41.0828 26.5193 43.6789 27.5071 45.8074 29.4829C47.9359 31.4586 49.0002 33.8669 49.0002 36.7079C49.0002 39.549 47.9348 41.9563 45.8042 43.9299C43.6735 45.9036 41.0762 46.8905 38.0124 46.8905ZM0 45.6219V27.8392H19.1774V45.6219H0ZM38.0149 43.3409C40.0185 43.3409 41.7123 42.6995 43.0962 41.4167C44.4801 40.1338 45.1721 38.5635 45.1721 36.7056C45.1721 34.8477 44.4804 33.2771 43.0969 31.9939C41.7135 30.7106 40.02 30.069 38.0164 30.069C36.0128 30.069 34.3191 30.7104 32.9352 31.9932C31.5512 33.276 30.8592 34.8463 30.8592 36.7042C30.8592 38.5621 31.551 40.1327 32.9344 41.416C34.3178 42.6992 36.0113 43.3409 38.0149 43.3409ZM3.82804 42.0722H15.3494V31.3888H3.82804V42.0722ZM17.1621 15.7383H29.0465L23.1319 6.91634L17.1621 15.7383Z" fill="#F5F5F5"/>
</g>
</svg>
