<svg width="48" height="48" viewBox="0 0 48 48" fill="none" xmlns="http://www.w3.org/2000/svg">
<mask id="mask0_6_294" style="mask-type:alpha" maskUnits="userSpaceOnUse" x="-7" y="-7" width="62" height="62">
<rect x="-6.31579" y="-6.31585" width="60.6316" height="60.6316" fill="#D9D9D9"/>
</mask>
<g mask="url(#mask0_6_294)">
<path d="M16.7611 37.1658H30.3643C30.9343 37.1658 31.4517 37.0314 31.9165 36.7626C32.3813 36.4937 32.7157 36.1002 32.9197 35.582L37.7391 24.3692C37.8395 24.11 37.9148 23.859 37.965 23.6161C38.0152 23.3732 38.0403 23.1384 38.0403 22.9117V21.3279C38.0403 20.7902 37.8671 20.3481 37.5205 20.0016C37.174 19.655 36.7319 19.4817 36.1942 19.4817H23.8444L25.3153 11.5259C25.3971 11.1359 25.3748 10.7676 25.2484 10.4211C25.1221 10.0745 24.9278 9.77009 24.6654 9.50773L23.5141 8.35636L13.7393 18.9473C13.4834 19.2101 13.2915 19.5058 13.1636 19.8343C13.0357 20.1628 12.9717 20.5311 12.9717 20.9392V33.3764C12.9717 34.4185 13.3427 35.3106 14.0848 36.0527C14.8269 36.7947 15.719 37.1658 16.7611 37.1658ZM24.0042 47.9999C20.6848 47.9999 17.5647 47.37 14.6439 46.1102C11.7231 44.8504 9.18244 43.1407 7.0219 40.9811C4.86131 38.8215 3.15084 36.282 1.89051 33.3625C0.630169 30.443 0 27.3236 0 24.0042C0 20.6848 0.629895 17.5647 1.88968 14.6439C3.14947 11.7231 4.85916 9.18245 7.01874 7.0219C9.17836 4.86131 11.7179 3.15085 14.6374 1.89051C17.5569 0.630171 20.6763 0 23.9957 0C27.3151 0 30.4352 0.629898 33.356 1.88969C36.2768 3.14948 38.8174 4.85916 40.978 7.01874C43.1386 9.17836 44.849 11.7179 46.1094 14.6374C47.3697 17.5569 47.9999 20.6763 47.9999 23.9957C47.9999 27.3151 47.37 30.4352 46.1102 33.356C44.8504 36.2768 43.1407 38.8174 40.9811 40.978C38.8215 43.1386 36.282 44.849 33.3625 46.1094C30.443 47.3697 27.3236 47.9999 24.0042 47.9999ZM23.9999 44.2105C29.642 44.2105 34.421 42.2526 38.3368 38.3368C42.2526 34.421 44.2105 29.642 44.2105 23.9999C44.2105 18.3578 42.2526 13.5789 38.3368 9.6631C34.421 5.74731 29.642 3.78941 23.9999 3.78941C18.3578 3.78941 13.5789 5.74731 9.6631 9.6631C5.74731 13.5789 3.78941 18.3578 3.78941 23.9999C3.78941 29.642 5.74731 34.421 9.6631 38.3368C13.5789 42.2526 18.3578 44.2105 23.9999 44.2105Z" fill="white"/>
</g>
</svg>
