<svg width="55" height="48" viewBox="0 0 55 48" fill="none" xmlns="http://www.w3.org/2000/svg">
<mask id="mask0_6_342" style="mask-type:alpha" maskUnits="userSpaceOnUse" x="-3" y="-5" width="61" height="60">
<rect x="-2.5" y="-5" width="60" height="60" fill="#D9D9D9"/>
</mask>
<g mask="url(#mask0_6_342)">
<path d="M7.5 32.5C5.41667 32.5 3.64583 31.7708 2.1875 30.3125C0.729167 28.8542 0 27.0833 0 25C0 22.9167 0.729167 21.1458 2.1875 19.6875C3.64583 18.2292 5.41667 17.5 7.5 17.5V12.5C7.5 11.125 7.98958 9.94792 8.96875 8.96875C9.94792 7.98958 11.125 7.5 12.5 7.5H20C20 5.41667 20.7292 3.64583 22.1875 2.1875C23.6458 0.729167 25.4167 0 27.5 0C29.5833 0 31.3542 0.729167 32.8125 2.1875C34.2708 3.64583 35 5.41667 35 7.5H42.5C43.875 7.5 45.0521 7.98958 46.0312 8.96875C47.0104 9.94792 47.5 11.125 47.5 12.5V17.5C49.5833 17.5 51.3542 18.2292 52.8125 19.6875C54.2708 21.1458 55 22.9167 55 25C55 27.0833 54.2708 28.8542 52.8125 30.3125C51.3542 31.7708 49.5833 32.5 47.5 32.5V42.5C47.5 43.875 47.0104 45.0521 46.0312 46.0312C45.0521 47.0104 43.875 47.5 42.5 47.5H12.5C11.125 47.5 9.94792 47.0104 8.96875 46.0312C7.98958 45.0521 7.5 43.875 7.5 42.5V32.5ZM20 27.5C21.0417 27.5 21.9271 27.1354 22.6562 26.4062C23.3854 25.6771 23.75 24.7917 23.75 23.75C23.75 22.7083 23.3854 21.8229 22.6562 21.0938C21.9271 20.3646 21.0417 20 20 20C18.9583 20 18.0729 20.3646 17.3438 21.0938C16.6146 21.8229 16.25 22.7083 16.25 23.75C16.25 24.7917 16.6146 25.6771 17.3438 26.4062C18.0729 27.1354 18.9583 27.5 20 27.5ZM35 27.5C36.0417 27.5 36.9271 27.1354 37.6562 26.4062C38.3854 25.6771 38.75 24.7917 38.75 23.75C38.75 22.7083 38.3854 21.8229 37.6562 21.0938C36.9271 20.3646 36.0417 20 35 20C33.9583 20 33.0729 20.3646 32.3438 21.0938C31.6146 21.8229 31.25 22.7083 31.25 23.75C31.25 24.7917 31.6146 25.6771 32.3438 26.4062C33.0729 27.1354 33.9583 27.5 35 27.5ZM17.5 37.5H37.5V32.5H17.5V37.5ZM12.5 42.5H42.5V12.5H12.5V42.5Z" fill="#D9D9D9"/>
</g>
</svg>
