<svg width="43" height="43" viewBox="0 0 43 43" fill="none" xmlns="http://www.w3.org/2000/svg">
<mask id="mask0_59_33" style="mask-type:alpha" maskUnits="userSpaceOnUse" x="-9" y="-9" width="61" height="61">
<rect x="-8.5131" y="-8.46547" width="60.0269" height="60.0269" fill="#D9D9D9"/>
</mask>
<g mask="url(#mask0_59_33)">
<path d="M40.3642 42.9999L24.6552 27.2909C23.4046 28.3234 21.9665 29.1315 20.3408 29.7151C18.715 30.2987 17.0332 30.5905 15.2952 30.5905C11.0204 30.5905 7.40249 29.1104 4.44149 26.1501C1.4805 23.1899 0 19.5729 0 15.2992C0 11.0254 1.48012 7.40711 4.44037 4.44424C7.40061 1.48141 11.0176 0 15.2914 0C19.5651 0 23.1834 1.4805 26.1462 4.4415C29.1091 7.40249 30.5905 11.0204 30.5905 15.2952C30.5905 17.0813 30.2907 18.7872 29.6911 20.4129C29.0914 22.0386 28.2914 23.4527 27.2909 24.6552L42.9999 40.3642L40.3642 42.9999ZM15.2952 26.8389C18.5178 26.8389 21.2474 25.7206 23.484 23.484C25.7206 21.2475 26.8389 18.5179 26.8389 15.2952C26.8389 12.0726 25.7206 9.34303 23.484 7.10644C21.2474 4.86985 18.5178 3.75156 15.2952 3.75156C12.0726 3.75156 9.34302 4.86985 7.10644 7.10644C4.86989 9.34303 3.75162 12.0726 3.75162 15.2952C3.75162 18.5179 4.86989 21.2475 7.10644 23.484C9.34302 25.7206 12.0726 26.8389 15.2952 26.8389Z" fill="#2E4057"/>
</g>
</svg>
