<svg width="47" height="39" viewBox="0 0 47 39" fill="none" xmlns="http://www.w3.org/2000/svg">
<mask id="mask0_13_399" style="mask-type:alpha" maskUnits="userSpaceOnUse" x="-3" y="-5" width="53" height="51">
<rect x="-2.13636" y="-4.10509" width="51.2727" height="49.262" fill="#2E4057"/>
</mask>
<g mask="url(#mask0_13_399)">
<path d="M6.40909 26.6836C4.62879 26.6836 3.11553 26.0849 1.86932 24.8876C0.623106 23.6902 0 22.2363 0 20.5258C0 18.8154 0.623106 17.3614 1.86932 16.1641C3.11553 14.9668 4.62879 14.3681 6.40909 14.3681V10.2629C6.40909 9.134 6.82746 8.16758 7.6642 7.36365C8.50095 6.55972 9.50682 6.15775 10.6818 6.15775H17.0909C17.0909 4.44727 17.714 2.99335 18.9602 1.79601C20.2064 0.59867 21.7197 0 23.5 0C25.2803 0 26.7936 0.59867 28.0398 1.79601C29.286 2.99335 29.9091 4.44727 29.9091 6.15775H36.3182C37.4932 6.15775 38.4991 6.55972 39.3358 7.36365C40.1725 8.16758 40.5909 9.134 40.5909 10.2629V14.3681C42.3712 14.3681 43.8845 14.9668 45.1307 16.1641C46.3769 17.3614 47 18.8154 47 20.5258C47 22.2363 46.3769 23.6902 45.1307 24.8876C43.8845 26.0849 42.3712 26.6836 40.5909 26.6836V34.8939C40.5909 36.0229 40.1725 36.9893 39.3358 37.7932C38.4991 38.5971 37.4932 38.9991 36.3182 38.9991H10.6818C9.50682 38.9991 8.50095 38.5971 7.6642 37.7932C6.82746 36.9893 6.40909 36.0229 6.40909 34.8939V26.6836ZM17.0909 22.5784C17.9811 22.5784 18.7377 22.2791 19.3608 21.6804C19.9839 21.0818 20.2955 20.3548 20.2955 19.4996C20.2955 18.6443 19.9839 17.9174 19.3608 17.3187C18.7377 16.72 17.9811 16.4207 17.0909 16.4207C16.2008 16.4207 15.4441 16.72 14.821 17.3187C14.1979 17.9174 13.8864 18.6443 13.8864 19.4996C13.8864 20.3548 14.1979 21.0818 14.821 21.6804C15.4441 22.2791 16.2008 22.5784 17.0909 22.5784ZM29.9091 22.5784C30.7992 22.5784 31.5559 22.2791 32.179 21.6804C32.8021 21.0818 33.1136 20.3548 33.1136 19.4996C33.1136 18.6443 32.8021 17.9174 32.179 17.3187C31.5559 16.72 30.7992 16.4207 29.9091 16.4207C29.0189 16.4207 28.2623 16.72 27.6392 17.3187C27.0161 17.9174 26.7045 18.6443 26.7045 19.4996C26.7045 20.3548 27.0161 21.0818 27.6392 21.6804C28.2623 22.2791 29.0189 22.5784 29.9091 22.5784ZM14.9545 30.7888H32.0455V26.6836H14.9545V30.7888ZM10.6818 34.8939H36.3182V10.2629H10.6818V34.8939Z" fill="#2E4057"/>
</g>
</svg>
