<svg width="43" height="43" viewBox="0 0 43 43" fill="none" xmlns="http://www.w3.org/2000/svg">
<mask id="mask0_27_1095" style="mask-type:alpha" maskUnits="userSpaceOnUse" x="-9" y="-9" width="61" height="61">
<rect x="-8.5136" y="-8.46542" width="60.027" height="60.027" fill="#D9D9D9"/>
</mask>
<g mask="url(#mask0_27_1095)">
<path d="M40.3642 43L24.6552 27.291C23.4047 28.3235 21.9665 29.1315 20.3408 29.7151C18.715 30.2987 17.0332 30.5905 15.2953 30.5905C11.0204 30.5905 7.4025 29.1104 4.4415 26.1501C1.4805 23.1899 0 19.5729 0 15.2992C0 11.0254 1.48012 7.40712 4.44037 4.44425C7.40062 1.48142 11.0176 0 15.2914 0C19.5651 0 23.1834 1.4805 26.1463 4.4415C29.1091 7.4025 30.5906 11.0204 30.5906 15.2953C30.5906 17.0813 30.2908 18.7872 29.6911 20.4129C29.0915 22.0387 28.2914 23.4528 27.291 24.6552L43 40.3642L40.3642 43ZM15.2953 26.839C18.5179 26.839 21.2475 25.7207 23.4841 23.4841C25.7207 21.2475 26.839 18.5179 26.839 15.2953C26.839 12.0726 25.7207 9.34304 23.4841 7.10645C21.2475 4.86986 18.5179 3.75156 15.2953 3.75156C12.0726 3.75156 9.34304 4.86986 7.10645 7.10645C4.8699 9.34304 3.75163 12.0726 3.75163 15.2953C3.75163 18.5179 4.8699 21.2475 7.10645 23.4841C9.34304 25.7207 12.0726 26.839 15.2953 26.839Z" fill="white"/>
</g>
</svg>
